<svg viewBox="0 0 600 600" xmlns="http://www.w3.org/2000/svg">
<defs><linearGradient id="bg" x1="0" y1="0" x2="0" y2="1"><stop offset="0" stop-color="#3b3d47"/><stop offset="1" stop-color="#212229"/></linearGradient></defs>
<rect width="600" height="600" fill="url(#bg)"/>
<ellipse cx="300.0" cy="536" rx="196" ry="40" fill="#000000" opacity="0.5"/>
<polygon points="361.6,487.2 131.6,451.6 131.6,438.2 361.6,473.8" fill="#787878" stroke="#6f737d" stroke-width="0.8" stroke-linejoin="round"/>
<polygon points="131.6,451.6 70.0,318.8 70.0,305.5 131.6,438.2" fill="#787878" stroke="#6f737d" stroke-width="0.8" stroke-linejoin="round"/>
<polygon points="530.0,390.0 361.6,487.2 361.6,473.8 530.0,376.6" fill="#787878" stroke="#6f737d" stroke-width="0.8" stroke-linejoin="round"/>
<polygon points="361.6,473.8 131.6,438.2 70.0,305.5 238.4,208.2 468.4,243.8 530.0,376.6" fill="#ececec" stroke="#6f737d" stroke-width="0.8" stroke-linejoin="round"/>
<polygon points="358.4,466.9 140.5,433.1 140.5,419.8 358.4,453.5" fill="#787878" stroke="#6f737d" stroke-width="0.8" stroke-linejoin="round"/>
<polygon points="140.5,433.1 82.1,307.3 82.1,294.0 140.5,419.8" fill="#787878" stroke="#6f737d" stroke-width="0.8" stroke-linejoin="round"/>
<polygon points="517.9,374.8 358.4,466.9 358.4,453.5 517.9,361.4" fill="#787878" stroke="#6f737d" stroke-width="0.8" stroke-linejoin="round"/>
<polygon points="358.4,453.5 140.5,419.8 82.1,294.0 241.6,201.9 459.5,235.6 517.9,361.4" fill="#ececec" stroke="#6f737d" stroke-width="0.8" stroke-linejoin="round"/>
<polygon points="355.2,446.6 149.3,414.7 149.3,401.4 355.2,433.2" fill="#787878" stroke="#6f737d" stroke-width="0.8" stroke-linejoin="round"/>
<polygon points="149.3,414.7 94.2,295.9 94.2,282.5 149.3,401.4" fill="#787878" stroke="#6f737d" stroke-width="0.8" stroke-linejoin="round"/>
<polygon points="505.9,359.6 355.2,446.6 355.2,433.2 505.9,346.2" fill="#787878" stroke="#6f737d" stroke-width="0.8" stroke-linejoin="round"/>
<polygon points="355.2,433.2 149.3,401.4 94.2,282.5 244.8,195.5 450.7,227.4 505.9,346.2" fill="#ececec" stroke="#6f737d" stroke-width="0.8" stroke-linejoin="round"/>
<polygon points="351.9,426.3 158.1,396.3 158.1,382.9 351.9,412.9" fill="#787878" stroke="#6f737d" stroke-width="0.8" stroke-linejoin="round"/>
<polygon points="158.1,396.3 106.2,284.4 106.2,271.1 158.1,382.9" fill="#787878" stroke="#6f737d" stroke-width="0.8" stroke-linejoin="round"/>
<polygon points="493.8,344.4 351.9,426.3 351.9,412.9 493.8,331.0" fill="#787878" stroke="#6f737d" stroke-width="0.8" stroke-linejoin="round"/>
<polygon points="351.9,412.9 158.1,382.9 106.2,271.1 248.1,189.2 441.9,219.1 493.8,331.0" fill="#ececec" stroke="#6f737d" stroke-width="0.8" stroke-linejoin="round"/>
<polygon points="348.7,405.9 167.0,377.8 167.0,364.5 348.7,392.6" fill="#787878" stroke="#6f737d" stroke-width="0.8" stroke-linejoin="round"/>
<polygon points="167.0,377.8 118.3,272.9 118.3,259.6 167.0,364.5" fill="#787878" stroke="#6f737d" stroke-width="0.8" stroke-linejoin="round"/>
<polygon points="481.7,329.1 348.7,405.9 348.7,392.6 481.7,315.8" fill="#787878" stroke="#6f737d" stroke-width="0.8" stroke-linejoin="round"/>
<polygon points="348.7,392.6 167.0,364.5 118.3,259.6 251.3,182.8 433.0,210.9 481.7,315.8" fill="#ececec" stroke="#6f737d" stroke-width="0.8" stroke-linejoin="round"/>
<polygon points="345.5,385.6 175.8,359.4 175.8,346.1 345.5,372.3" fill="#787878" stroke="#6f737d" stroke-width="0.8" stroke-linejoin="round"/>
<polygon points="175.8,359.4 130.4,261.5 130.4,248.1 175.8,346.1" fill="#787878" stroke="#6f737d" stroke-width="0.8" stroke-linejoin="round"/>
<polygon points="469.6,313.9 345.5,385.6 345.5,372.3 469.6,300.6" fill="#787878" stroke="#6f737d" stroke-width="0.8" stroke-linejoin="round"/>
<polygon points="345.5,372.3 175.8,346.1 130.4,248.1 254.5,176.4 424.2,202.7 469.6,300.6" fill="#ececec" stroke="#6f737d" stroke-width="0.8" stroke-linejoin="round"/>
<polygon points="342.2,365.3 184.7,341.0 184.7,327.6 342.2,352.0" fill="#787878" stroke="#6f737d" stroke-width="0.8" stroke-linejoin="round"/>
<polygon points="184.7,341.0 142.5,250.0 142.5,236.7 184.7,327.6" fill="#787878" stroke="#6f737d" stroke-width="0.8" stroke-linejoin="round"/>
<polygon points="457.6,298.7 342.2,365.3 342.2,352.0 457.6,285.4" fill="#787878" stroke="#6f737d" stroke-width="0.8" stroke-linejoin="round"/>
<polygon points="342.2,352.0 184.7,327.6 142.5,236.7 257.8,170.1 415.3,194.5 457.6,285.4" fill="#ececec" stroke="#6f737d" stroke-width="0.8" stroke-linejoin="round"/>
<polygon points="339.0,345.0 193.5,322.5 193.5,309.2 339.0,331.7" fill="#787878" stroke="#6f737d" stroke-width="0.8" stroke-linejoin="round"/>
<polygon points="193.5,322.5 154.5,238.5 154.5,225.2 193.5,309.2" fill="#787878" stroke="#6f737d" stroke-width="0.8" stroke-linejoin="round"/>
<polygon points="445.5,283.5 339.0,345.0 339.0,331.7 445.5,270.2" fill="#787878" stroke="#6f737d" stroke-width="0.8" stroke-linejoin="round"/>
<polygon points="339.0,331.7 193.5,309.2 154.5,225.2 261.0,163.7 406.5,186.2 445.5,270.2" fill="#ececec" stroke="#6f737d" stroke-width="0.8" stroke-linejoin="round"/>
<polygon points="335.7,324.7 202.3,304.1 202.3,290.8 335.7,311.4" fill="#787878" stroke="#6f737d" stroke-width="0.8" stroke-linejoin="round"/>
<polygon points="202.3,304.1 166.6,227.1 166.6,213.7 202.3,290.8" fill="#787878" stroke="#6f737d" stroke-width="0.8" stroke-linejoin="round"/>
<polygon points="433.4,268.3 335.7,324.7 335.7,311.4 433.4,255.0" fill="#787878" stroke="#6f737d" stroke-width="0.8" stroke-linejoin="round"/>
<polygon points="335.7,311.4 202.3,290.8 166.6,213.7 264.3,157.4 397.7,178.0 433.4,255.0" fill="#ececec" stroke="#6f737d" stroke-width="0.8" stroke-linejoin="round"/>
<polygon points="332.5,304.4 211.2,285.7 211.2,272.3 332.5,291.1" fill="#787878" stroke="#6f737d" stroke-width="0.8" stroke-linejoin="round"/>
<polygon points="211.2,285.7 178.7,215.6 178.7,202.3 211.2,272.3" fill="#787878" stroke="#6f737d" stroke-width="0.8" stroke-linejoin="round"/>
<polygon points="421.3,253.1 332.5,304.4 332.5,291.1 421.3,239.8" fill="#787878" stroke="#6f737d" stroke-width="0.8" stroke-linejoin="round"/>
<polygon points="332.5,291.1 211.2,272.3 178.7,202.3 267.5,151.0 388.8,169.8 421.3,239.8" fill="#ececec" stroke="#6f737d" stroke-width="0.8" stroke-linejoin="round"/>
<polygon points="329.3,284.1 220.0,267.2 220.0,253.9 329.3,270.8" fill="#787878" stroke="#6f737d" stroke-width="0.8" stroke-linejoin="round"/>
<polygon points="220.0,267.2 190.8,204.1 190.8,190.8 220.0,253.9" fill="#787878" stroke="#6f737d" stroke-width="0.8" stroke-linejoin="round"/>
<polygon points="409.2,237.9 329.3,284.1 329.3,270.8 409.2,224.6" fill="#787878" stroke="#6f737d" stroke-width="0.8" stroke-linejoin="round"/>
<polygon points="329.3,270.8 220.0,253.9 190.8,190.8 270.7,144.6 380.0,161.5 409.2,224.6" fill="#ececec" stroke="#6f737d" stroke-width="0.8" stroke-linejoin="round"/>
<polygon points="326.0,263.8 228.9,248.8 228.9,235.5 326.0,250.5" fill="#787878" stroke="#6f737d" stroke-width="0.8" stroke-linejoin="round"/>
<polygon points="228.9,248.8 202.8,192.7 202.8,179.4 228.9,235.5" fill="#787878" stroke="#6f737d" stroke-width="0.8" stroke-linejoin="round"/>
<polygon points="397.2,222.7 326.0,263.8 326.0,250.5 397.2,209.4" fill="#787878" stroke="#6f737d" stroke-width="0.8" stroke-linejoin="round"/>
<polygon points="326.0,250.5 228.9,235.5 202.8,179.4 274.0,138.3 371.1,153.3 397.2,209.4" fill="#ececec" stroke="#6f737d" stroke-width="0.8" stroke-linejoin="round"/>
<polygon points="322.8,243.5 237.7,230.4 237.7,217.0 322.8,230.2" fill="#787878" stroke="#6f737d" stroke-width="0.8" stroke-linejoin="round"/>
<polygon points="237.7,230.4 214.9,181.2 214.9,167.9 237.7,217.0" fill="#787878" stroke="#6f737d" stroke-width="0.8" stroke-linejoin="round"/>
<polygon points="385.1,207.5 322.8,243.5 322.8,230.2 385.1,194.2" fill="#787878" stroke="#6f737d" stroke-width="0.8" stroke-linejoin="round"/>
<polygon points="322.8,230.2 237.7,217.0 214.9,167.9 277.2,131.9 362.3,145.1 385.1,194.2" fill="#ececec" stroke="#6f737d" stroke-width="0.8" stroke-linejoin="round"/>
<polygon points="319.6,223.2 246.5,211.9 246.5,198.6 319.6,209.9" fill="#787878" stroke="#6f737d" stroke-width="0.8" stroke-linejoin="round"/>
<polygon points="246.5,211.9 227.0,169.8 227.0,156.4 246.5,198.6" fill="#787878" stroke="#6f737d" stroke-width="0.8" stroke-linejoin="round"/>
<polygon points="373.0,192.3 319.6,223.2 319.6,209.9 373.0,179.0" fill="#787878" stroke="#6f737d" stroke-width="0.8" stroke-linejoin="round"/>
<polygon points="319.6,209.9 246.5,198.6 227.0,156.4 280.4,125.6 353.5,136.9 373.0,179.0" fill="#ececec" stroke="#6f737d" stroke-width="0.8" stroke-linejoin="round"/>
<polygon points="316.3,202.9 255.4,193.5 255.4,180.1 316.3,189.6" fill="#787878" stroke="#6f737d" stroke-width="0.8" stroke-linejoin="round"/>
<polygon points="255.4,193.5 239.1,158.3 239.1,145.0 255.4,180.1" fill="#787878" stroke="#6f737d" stroke-width="0.8" stroke-linejoin="round"/>
<polygon points="360.9,177.1 316.3,202.9 316.3,189.6 360.9,163.8" fill="#787878" stroke="#6f737d" stroke-width="0.8" stroke-linejoin="round"/>
<polygon points="316.3,189.6 255.4,180.1 239.1,145.0 283.7,119.2 344.6,128.6 360.9,163.8" fill="#ececec" stroke="#6f737d" stroke-width="0.8" stroke-linejoin="round"/>
<polygon points="313.1,182.6 264.2,175.0 264.2,161.7 313.1,169.3" fill="#787878" stroke="#6f737d" stroke-width="0.8" stroke-linejoin="round"/>
<polygon points="264.2,175.0 251.1,146.8 251.1,133.5 264.2,161.7" fill="#787878" stroke="#6f737d" stroke-width="0.8" stroke-linejoin="round"/>
<polygon points="348.9,161.9 313.1,182.6 313.1,169.3 348.9,148.6" fill="#787878" stroke="#6f737d" stroke-width="0.8" stroke-linejoin="round"/>
<polygon points="313.1,169.3 264.2,161.7 251.1,133.5 286.9,112.8 335.8,120.4 348.9,148.6" fill="#ececec" stroke="#6f737d" stroke-width="0.8" stroke-linejoin="round"/>
</svg>